<?xml version="1.0" encoding="utf-8"?>
<!-- Generator: Adobe Illustrator 18.1.1, SVG Export Plug-In . SVG Version: 6.00 Build 0)  -->
<svg version="1.1" id="Layer_1" xmlns="http://www.w3.org/2000/svg" xmlns:xlink="http://www.w3.org/1999/xlink" x="0px" y="0px"
	 viewBox="0 0 141.7 141.7" enable-background="new 0 0 141.7 141.7" xml:space="preserve">
<g>
	<g>
		
			<rect x="3.5" y="13.5" transform="matrix(-0.7071 -0.7071 0.7071 -0.7071 19.413 51.9152)" fill="#236060" width="33.8" height="16.9"/>
		<g>
			<rect x="15.8" y="58.1" opacity="0.6" fill="#7EC46C" width="0" height="0"/>
			<polygon fill="#4E8B69" points="15.8,58.1 15.8,58.1 15.8,58.1 54.7,88.7 58.5,50 			"/>
			<polygon opacity="0.4" fill="#7EC46C" points="15.8,58.1 15.8,58.1 15.8,58.1 			"/>
			<polygon opacity="0.2" fill="#7EC46C" points="15.8,58.1 15.8,58.1 15.8,58.1 			"/>
			<polygon fill="#64A56C" points="15.8,58.1 58.5,50 29.5,32.1 15.8,58.1 			"/>
			<polygon fill="#7DC46C" points="54.3,16.9 29.5,32.1 58.5,50 			"/>
			<polygon fill="#64A56C" points="88.8,34.7 54.3,16.9 58.5,50 			"/>
			<polygon fill="#236060" points="97.7,73.3 88.8,34.7 58.5,50 			"/>
			<polygon fill="#7DC46C" points="54.7,88.7 97.7,73.3 58.5,50 			"/>
			<polygon fill="#044E59" points="32,112.2 78.8,113.8 54.7,88.7 			"/>
			<polygon fill="#236060" points="32,112.2 78.8,113.8 54.7,88.7 			"/>
			<polygon fill="#64A56C" points="16.6,87.6 32,112.2 54.7,88.7 			"/>
			<polygon fill="#044E59" points="108.9,28.9 83.1,15.4 88.8,34.7 			"/>
			<polygon fill="#7DC46C" points="108.9,28.9 83.1,15.4 88.8,34.7 			"/>
			<polygon fill="#044E59" points="88.8,34.7 83.1,15.4 54.3,16.9 			"/>
			<polygon fill="#236060" points="88.8,34.7 83.1,15.4 54.3,16.9 			"/>
			<polygon fill="#4E8B69" points="97.7,73.3 125.2,54 88.8,34.7 			"/>
			<polygon fill="#044E59" points="88.8,34.7 125.2,54 108.9,28.9 			"/>
			<polygon fill="#236060" points="88.8,34.7 125.2,54 108.9,28.9 			"/>
			<polygon fill="#4E8B69" points="78.8,113.8 97.7,73.3 54.7,88.7 			"/>
			<polygon fill="#236060" points="78.8,113.8 112.4,109.7 97.7,73.3 			"/>
			<polygon fill="#4E8B69" points="112.4,109.7 126.2,83.8 97.7,73.3 			"/>
			<polygon fill="#64A56C" points="126.2,83.8 125.2,54 97.7,73.3 			"/>
			<polygon opacity="0.2" fill="#7EC46C" points="87.5,125.2 87.5,125.2 87.5,125.2 			"/>
			<polygon fill="#4E8B69" points="87.5,125.2 87.5,125.2 112.4,109.7 78.8,113.8 			"/>
			<polygon fill="#64A56C" points="78.8,113.8 57.1,125.9 87.5,125.2 87.5,125.2 87.5,125.2 			"/>
			<polygon fill="#64A56C" points="1.5,72 16.6,87.6 15.8,58.1 			"/>
			<polygon fill="#4E8B69" points="140.3,69.7 125.2,54.1 126.2,83.8 			"/>
			<polygon fill="#4E8B69" points="72,140.3 87.6,125.2 58.1,125.9 			"/>
			<polygon fill="#4E8B69" points="69.7,1.5 54.3,16.9 83.1,15.4 			"/>
			<polygon fill="#236060" points="11.8,107.2 32,112.2 16.6,87.6 			"/>
			<polygon fill="#4E8B69" points="130,34.5 108.9,28.9 125.2,54 			"/>
			<polygon fill="#236060" points="107.2,130 112.4,109.7 87.5,125.2 			"/>
			<polygon fill="#4E8B69" points="34.5,11.8 29.5,32.1 54.3,16.9 			"/>
			<polygon fill="#64A56C" points="38,134.8 58.5,126.3 32,112.2 			"/>
			<polygon fill="#4E8B69" points="57.4,125.7 78.8,113.8 32,112.2 32,112.2 			"/>
			<polygon fill="#4E8B69" points="104.3,10 83.1,15.4 108.9,28.9 			"/>
			<polygon fill="#236060" points="130.3,106.7 126.2,83.8 112.4,109.7 			"/>
			<polygon fill="#7DC46C" points="11.4,35.1 15.8,58.1 29.5,32.1 			"/>
			<polygon fill="#7DC46C" points="15.8,58.1 16.6,87.6 54.7,88.7 			"/>
		</g>
	</g>
</g>
</svg>
