<?xml version="1.0" encoding="utf-8"?>
<!-- Generator: Adobe Illustrator 18.1.1, SVG Export Plug-In . SVG Version: 6.00 Build 0)  -->
<svg version="1.1" id="Layer_1" xmlns="http://www.w3.org/2000/svg" xmlns:xlink="http://www.w3.org/1999/xlink" x="0px" y="0px"
	 viewBox="0 0 56.7 56.7" enable-background="new 0 0 56.7 56.7" xml:space="preserve">
<g>
	<circle fill="#FDE100" cx="30.1" cy="18.4" r="15"/>
	<g>
		<defs>
			<circle id="SVGID_25_" cx="30.1" cy="18.4" r="15"/>
		</defs>
		<clipPath id="SVGID_2_">
			<use xlink:href="#SVGID_25_"  overflow="visible"/>
		</clipPath>
		<g clip-path="url(#SVGID_2_)">
			<g>
				<rect x="28.4" y="9" fill="#236060" width="3.7" height="7.2"/>
				<g>
					<rect x="24" y="17.2" opacity="0.6" fill="#7EC46C" width="0" height="0"/>
					<polygon fill="#4E8B69" points="24,17.2 24,17.2 24,17.2 25.3,27.6 31.8,22.4 					"/>
					<polygon opacity="0.4" fill="#7EC46C" points="24,17.2 24,17.2 24,17.2 					"/>
					<polygon opacity="0.2" fill="#7EC46C" points="24,17.2 24,17.2 24,17.2 					"/>
					<polygon fill="#64A56C" points="24,17.2 31.8,22.4 30.1,15.4 24,17.2 					"/>
					<polygon fill="#7DC46C" points="36.2,16.8 30.1,15.4 31.8,22.4 					"/>
					<polygon fill="#64A56C" points="38.8,24.7 36.2,16.8 31.8,22.4 					"/>
					<polygon fill="#236060" points="34.2,31.8 38.8,24.7 31.8,22.4 					"/>
					<polygon fill="#7DC46C" points="25.3,27.6 34.2,31.8 31.8,22.4 					"/>
					<polygon fill="#044E59" points="18.2,27.8 25.1,35 25.3,27.6 					"/>
					<polygon fill="#236060" points="18.2,27.8 25.1,35 25.3,27.6 					"/>
					<polygon fill="#64A56C" points="19.6,21.8 18.2,27.8 25.3,27.6 					"/>
					<polygon fill="#044E59" points="42.7,26.8 40.8,20.9 38.8,24.7 					"/>
					<polygon fill="#7DC46C" points="42.7,26.8 40.8,20.9 38.8,24.7 					"/>
					<polygon fill="#044E59" points="38.8,24.7 40.8,20.9 36.2,16.8 					"/>
					<polygon fill="#236060" points="38.8,24.7 40.8,20.9 36.2,16.8 					"/>
					<polygon fill="#4E8B69" points="34.2,31.8 41.4,33 38.8,24.7 					"/>
					<polygon fill="#044E59" points="38.8,24.7 41.4,33 42.7,26.8 					"/>
					<polygon fill="#236060" points="38.8,24.7 41.4,33 42.7,26.8 					"/>
					<polygon fill="#4E8B69" points="25.1,35 34.2,31.8 25.3,27.6 					"/>
					<polygon fill="#236060" points="25.1,35 30.9,39.4 34.2,31.8 					"/>
					<polygon fill="#4E8B69" points="30.9,39.4 37,37.6 34.2,31.8 					"/>
					<polygon fill="#64A56C" points="37,37.6 41.4,33 34.2,31.8 					"/>
					<polygon opacity="0.2" fill="#7EC46C" points="24.7,38 24.7,38 24.7,38 					"/>
					<polygon fill="#4E8B69" points="24.7,38 24.7,38 30.9,39.4 25.1,35 					"/>
					<polygon fill="#64A56C" points="25.1,35 20,33.5 24.7,38 24.7,38 24.7,38 					"/>
					<polygon fill="#64A56C" points="19.7,17.2 19.6,21.8 24,17.2 					"/>
					<polygon fill="#4E8B69" points="41.3,37.6 41.4,33 37,37.6 					"/>
					<polygon fill="#4E8B69" points="20.1,37.9 24.8,38 20.1,33.7 					"/>
					<polygon fill="#4E8B69" points="40.9,16.8 36.2,16.8 40.8,20.9 					"/>
					<polygon fill="#236060" points="15.9,24 18.2,27.8 19.6,21.8 					"/>
					<polygon fill="#4E8B69" points="45.1,30.8 42.7,26.8 41.4,33 					"/>
					<polygon fill="#236060" points="27,41.6 30.9,39.4 24.7,38 					"/>
					<polygon fill="#4E8B69" points="34,13.1 30.1,15.4 36.2,16.8 					"/>
					<polygon fill="#64A56C" points="15.7,32 20.1,33.8 18.2,27.8 					"/>
					<polygon fill="#4E8B69" points="20,33.6 25.1,35 18.2,27.8 18.2,27.8 					"/>
					<polygon fill="#4E8B69" points="44.9,23.3 40.8,20.9 42.7,26.8 					"/>
					<polygon fill="#236060" points="34.1,41.6 37,37.6 30.9,39.4 					"/>
					<polygon fill="#7DC46C" points="26.9,13.1 24,17.2 30.1,15.4 					"/>
					<polygon fill="#7DC46C" points="24,17.2 19.6,21.8 25.3,27.6 					"/>
				</g>
			</g>
		</g>
	</g>
	<g>
		<g>
			<g>
				<path fill="#FFFFFF" d="M19.9,43.2c0-0.6,0-1.1,0-1.6c0-0.5-0.2-0.8-0.7-1.1c0.6-0.2,1.2-0.3,1.7-0.5c0,0.2,0,0.3,0,0.5
					c0,2.2,0,4.4,0,6.7c0,0.5,0,1.1,0.6,1.5c-0.6,0.1-1,0.2-1.6,0.4c0-0.3,0-0.6,0-1c-0.3,0.2-0.5,0.4-0.7,0.6
					c-1.1,0.8-2.6,0.5-3.3-0.7c-0.7-1.2-0.6-3.2,0.4-4.2c0.8-0.9,2.1-1.1,3.2-0.7C19.7,43.1,19.8,43.2,19.9,43.2z M19.9,46
					c0-0.4,0-0.8,0-1.2c0-0.9-0.4-1.4-1.1-1.6c-0.7-0.2-1.5,0.2-1.8,0.9c-0.5,0.9-0.5,1.9-0.2,2.9c0.4,1.3,1.8,1.7,2.9,0.8
					c0.1-0.1,0.2-0.3,0.2-0.4C19.9,47,19.9,46.5,19.9,46z"/>
				<path fill="#FFFFFF" d="M27.2,48.6c-0.3,0.4-0.7,0.5-1.1,0.5c-0.5,0-0.7-0.3-0.8-0.8c-0.5,0.6-1.2,0.9-2,0.8
					c-0.7-0.1-1.2-0.5-1.4-1.1c-0.2-0.7,0.1-1.4,0.6-1.8c0.6-0.4,1.3-0.5,2-0.5c0.2,0,0.4,0,0.7,0c0-0.6,0.1-1.3-0.1-1.9
					C24.8,43,23.6,43,23,43.6c0.1,0.1,0.3,0.3,0.3,0.4c0,0.2,0,0.5-0.1,0.6c-0.1,0.1-0.5,0.2-0.6,0.2c-0.2-0.1-0.4-0.3-0.4-0.5
					c-0.1-0.5,0.2-0.8,0.6-1.1c0.9-0.5,1.8-0.5,2.7-0.1c0.6,0.3,0.8,0.9,0.8,1.5c0,1,0,1.9,0,2.9C26.3,48.4,26.3,48.5,27.2,48.6z
					 M25.3,46.1c-0.6-0.1-1.1-0.1-1.7,0.2c-0.5,0.3-0.8,0.8-0.7,1.4c0.1,0.5,0.4,0.8,1,0.8c0.5,0.1,1.3-0.4,1.3-0.8
					C25.3,47.2,25.3,46.7,25.3,46.1z"/>
				<g>
					<path fill="#FFFFFF" d="M5.2,49c-0.6,0-1.3,0-2.1,0c0.6-0.4,0.5-0.9,0.5-1.4c0-1.7,0-3.4,0-5.2c0-0.5,0-1-0.5-1.3
						c0.7,0,1.4,0,2.1,0c-0.6,0.5-0.5,1.2-0.5,1.9c0,1.6,0,3.1,0,4.7C4.8,48.1,4.8,48.6,5.2,49z"/>
					<path fill="#FFFFFF" d="M9.9,48.8c-0.3,0.4-1,0.5-1.5,0.2c-0.5-0.3-0.9-0.8-1.2-1.2C6.5,47,6,46.2,5.4,45.5
						c-0.2-0.3-0.2-0.4,0-0.7c0.6-0.7,1.3-1.5,1.9-2.3c0.4-0.4,0.5-0.9,0-1.5c0.7,0,1.4,0,2.2,0c-1.6,0.8-2.4,2.3-3.5,3.4
						C7.3,46,8.3,47.7,9.9,48.8z"/>
				</g>
				<g>
					<path fill="#FFFFFF" d="M27.8,43.4c0.5-0.2,1-0.4,1.6-0.5c0,1.6,0,3.2,0,4.8c0,0.5,0,0.9,0.5,1.3c-0.7,0-1.3,0-2.1,0
						c0.7-0.6,0.5-1.3,0.5-2c0-0.8,0-1.5,0-2.3C28.3,44,28.3,44,27.8,43.4z"/>
					<path fill="#FFFFFF" d="M29.5,41.3c0,0.4-0.4,0.8-0.8,0.7c-0.4,0-0.7-0.4-0.7-0.8c0-0.4,0.4-0.7,0.8-0.7
						C29.2,40.6,29.5,40.9,29.5,41.3z"/>
				</g>
				<path fill="#FFFFFF" d="M12,48.3c-0.9-0.4-1.4-1.4-1.2-2.6c1.3,0,2.6,0,3.9,0c0.1-0.7,0-1.4-0.3-1.9c-0.6-1-2.3-1.3-3.4-0.6
					c-0.9,0.6-1.2,1.4-1.3,2.4c-0.2,2,1,3.8,3.3,3.4c0.8-0.1,1.5-0.6,1.9-1.4C14,48.3,13.1,48.7,12,48.3z M12.1,43.2
					c0.6-0.2,1.3,0.1,1.6,0.6c0.2,0.4,0.2,0.9,0.2,1.4c-1.1,0.1-2.1,0.1-3,0.2C10.7,44.4,11.3,43.5,12.1,43.2z"/>
				<path fill="#FFFFFF" d="M49.2,43.6c0.4,0.3,0.5,0.7,0.3,0.9c-0.2,0.2-0.5,0.3-0.7,0.3c-0.2,0-0.4-0.3-0.5-0.5
					c-0.1-0.5,0.1-0.9,0.5-1.1c0.9-0.5,1.8-0.6,2.8-0.1c0.6,0.3,0.8,0.9,0.8,1.5c0,1,0,1.9,0,2.9c0,0.9,0,0.9,0.9,1.1
					c-0.2,0.4-0.6,0.5-1,0.5c-0.5,0-0.8-0.3-0.9-0.8c-0.5,0.6-1.2,0.9-2,0.8c-0.7-0.1-1.2-0.5-1.4-1.1c-0.2-0.7,0.1-1.4,0.6-1.8
					c0.6-0.4,1.3-0.5,2-0.5c0.2,0,0.4,0,0.7,0c0-0.6,0-1.2-0.1-1.7C51.2,43.1,49.9,42.9,49.2,43.6z M51.5,46.1
					c-0.6-0.1-1.2-0.1-1.7,0.2c-0.5,0.3-0.8,0.9-0.7,1.4c0.1,0.5,0.4,0.8,1,0.8c0.5,0.1,1.3-0.4,1.3-0.8
					C51.5,47.2,51.5,46.7,51.5,46.1z"/>
				<g>
					<path fill="#FFFFFF" d="M47.5,49c-0.5,0-1.1,0-1.6,0c-0.1,0-0.2,0-0.4,0c0.6-0.4,0.5-1,0.5-1.5c0-0.9,0-1.7,0-2.6
						c0-0.6,0.1-1.1-0.6-1.5c0.6-0.2,1.1-0.4,1.6-0.6c0,0.3,0,0.5,0,0.7c0,1.4,0,2.8,0,4.2C47,48.3,47.1,48.7,47.5,49z"/>
					<path fill="#FFFFFF" d="M47.2,41.3c0,0.4-0.4,0.8-0.8,0.7c-0.4,0-0.7-0.4-0.7-0.8c0-0.4,0.4-0.7,0.8-0.7
						C46.9,40.6,47.2,40.9,47.2,41.3z"/>
				</g>
				<path fill="#FFFFFF" d="M40,49c-0.3-0.5-0.5-0.9-0.7-1.4c-0.9-2.1-1.8-4.2-2.6-6.3c-0.1-0.1-0.1-0.3-0.2-0.5
					c-0.1,0.2-0.1,0.2-0.2,0.3c-0.7,1.6-1.3,3.2-2.1,4.8c-0.5,1.1-0.8,2.3-1.9,3c0.8,0,1.4,0,2.2,0c-0.5-0.4-0.5-0.9-0.4-1.4
					c0.1-0.3,0.1-0.5,0.3-0.8c0.1-0.1,0.2-0.3,0.4-0.3c0.6,0,1.4,0,2.1,0c0.2,0,0.4,0,0.5,0l-0.1-0.4c-0.8,0-1.7,0-2.6,0
					c0.5-1.2,1-2.4,1.5-3.7c0.4,0.9,0.7,1.8,1.1,2.7l0,0l0,0c0.1,0.3,0.3,0.7,0.4,1c0,0,0,0,0,0l0.3,0.7c0.1,0.2,0.2,0.4,0.3,0.7
					c0,0.1,0,0.1,0.1,0.2l0,0h0c0.1,0.4,0.2,0.9-0.3,1.2C38.7,49,39.3,49,40,49z"/>
				<path fill="#FFFFFF" d="M43.9,46c-0.2-0.2-0.5-0.3-0.8-0.4c-0.4-0.2-0.8-0.4-1.2-0.6c-0.6-0.4-0.7-1.1-0.2-1.5
					c0.4-0.3,1.3-0.3,1.8,0c-0.2,0.1-0.3,0.3-0.3,0.6c0,0.4,0.3,0.6,0.7,0.6c0.4,0,0.6-0.3,0.6-0.7c0-0.1-0.1-0.3-0.2-0.4
					c0,0,0,0,0,0c0,0,0,0,0,0c0,0,0,0,0,0c-0.2-0.2-0.2-0.2-0.5-0.4c-0.7-0.3-1.4-0.3-2.1-0.1c-0.6,0.2-1.1,0.6-1.2,1.3
					c-0.1,0.7,0.3,1.2,0.9,1.6c0.3,0.2,0.7,0.3,1,0.5c0.4,0.2,0.8,0.4,1.1,0.7c0.6,0.5,0.4,1.3-0.3,1.6c-0.6,0.2-1.2,0.2-1.7-0.2
					c0.2-0.1,0.3-0.3,0.3-0.5c0-0.4-0.3-0.6-0.6-0.6c-0.1,0-0.1,0-0.1,0c0,0,0,0-0.1,0c0,0,0,0,0,0c0,0,0,0-0.1,0c0,0,0,0-0.1,0
					c-0.2,0.1-0.3,0.3-0.3,0.5c0,0,0,0,0,0c0,0.3,0.2,0.5,0.4,0.6c0.8,0.6,2.4,0.6,3.2,0C44.9,47.9,44.8,46.7,43.9,46z"/>
			</g>
		</g>
	</g>
</g>
</svg>
