<?xml version="1.0" encoding="utf-8"?>
<!-- Generator: Adobe Illustrator 18.1.1, SVG Export Plug-In . SVG Version: 6.00 Build 0)  -->
<svg version="1.1" id="Layer_1" xmlns="http://www.w3.org/2000/svg" xmlns:xlink="http://www.w3.org/1999/xlink" x="0px" y="0px"
	 viewBox="0 0 141.7 141.7" enable-background="new 0 0 141.7 141.7" xml:space="preserve">
<g>
	<circle fill="#FFFFFF" cx="70.9" cy="70.9" r="70.5"/>
	<g>
		<defs>
			<circle id="SVGID_25_" cx="70.9" cy="70.9" r="70.5"/>
		</defs>
		<clipPath id="SVGID_2_">
			<use xlink:href="#SVGID_25_"  overflow="visible"/>
		</clipPath>
		<g clip-path="url(#SVGID_2_)">
			<g>
				<rect x="63.2" y="26.3" fill="#236060" width="17.2" height="33.7"/>
				<g>
					<rect x="42.5" y="65.4" opacity="0.6" fill="#7EC46C" width="0" height="0"/>
					<polygon fill="#4E8B69" points="42.5,65.4 42.5,65.4 42.5,65.4 48.4,114.2 79,89.6 					"/>
					<polygon opacity="0.4" fill="#7EC46C" points="42.5,65.4 42.5,65.4 42.5,65.4 					"/>
					<polygon opacity="0.2" fill="#7EC46C" points="42.5,65.4 42.5,65.4 42.5,65.4 					"/>
					<polygon fill="#64A56C" points="42.5,65.4 79,89.6 71,56.7 42.5,65.4 					"/>
					<polygon fill="#7DC46C" points="99.8,63.4 71,56.7 79,89.6 					"/>
					<polygon fill="#64A56C" points="111.8,100.2 99.8,63.4 79,89.6 					"/>
					<polygon fill="#236060" points="90.4,133.7 111.8,100.2 79,89.6 					"/>
					<polygon fill="#7DC46C" points="48.4,114.2 90.4,133.7 79,89.6 					"/>
					<polygon fill="#044E59" points="15.2,114.8 47.7,148.8 48.4,114.2 					"/>
					<polygon fill="#236060" points="15.2,114.8 47.7,148.8 48.4,114.2 					"/>
					<polygon fill="#64A56C" points="21.8,86.6 15.2,114.8 48.4,114.2 					"/>
					<polygon fill="#044E59" points="130.5,110.3 121.6,82.7 111.8,100.2 					"/>
					<polygon fill="#7DC46C" points="130.5,110.3 121.6,82.7 111.8,100.2 					"/>
					<polygon fill="#044E59" points="111.8,100.2 121.6,82.7 99.8,63.4 					"/>
					<polygon fill="#236060" points="111.8,100.2 121.6,82.7 99.8,63.4 					"/>
					<polygon fill="#4E8B69" points="90.4,133.7 124.1,139.4 111.8,100.2 					"/>
					<polygon fill="#044E59" points="111.8,100.2 124.1,139.4 130.5,110.3 					"/>
					<polygon fill="#236060" points="111.8,100.2 124.1,139.4 130.5,110.3 					"/>
					<polygon fill="#4E8B69" points="47.7,148.8 90.4,133.7 48.4,114.2 					"/>
					<polygon fill="#236060" points="47.7,148.8 74.8,169.6 90.4,133.7 					"/>
					<polygon fill="#4E8B69" points="74.8,169.6 103.4,161.1 90.4,133.7 					"/>
					<polygon fill="#64A56C" points="103.4,161.1 124.1,139.4 90.4,133.7 					"/>
					<polygon fill="#64A56C" points="22.1,65.1 21.8,86.6 42.5,65.4 					"/>
					<polygon fill="#4E8B69" points="123.7,161.1 124,139.5 103.4,161.1 					"/>
					<polygon fill="#4E8B69" points="122,63.4 99.8,63.4 121.6,82.7 					"/>
					<polygon fill="#236060" points="4.2,97.1 15.2,114.8 21.8,86.6 					"/>
					<polygon fill="#4E8B69" points="141.6,129.1 130.5,110.3 124.1,139.4 					"/>
					<polygon fill="#4E8B69" points="89.3,45.9 71,56.7 99.8,63.4 					"/>
					<polygon fill="#64A56C" points="3.2,134.9 24,143.4 15.2,114.8 					"/>
					<polygon fill="#4E8B69" points="23.7,142.2 47.7,148.8 15.2,114.8 15.2,114.8 					"/>
					<polygon fill="#4E8B69" points="140.7,93.8 121.6,82.7 130.5,110.3 					"/>
					<polygon fill="#7DC46C" points="55.9,46 42.5,65.4 71,56.7 					"/>
					<polygon fill="#7DC46C" points="42.5,65.4 21.8,86.6 48.4,114.2 					"/>
				</g>
			</g>
		</g>
	</g>
</g>
</svg>
